<?xml version="1.0" standalone="no"?>
<!DOCTYPE svg PUBLIC "-//W3C//DTD SVG 20010904//EN"
 "http://www.w3.org/TR/2001/REC-SVG-20010904/DTD/svg10.dtd">
<svg version="1.0" xmlns="http://www.w3.org/2000/svg"
 width="122.000000pt" height="122.000000pt" viewBox="0 0 122.000000 122.000000"
 preserveAspectRatio="xMidYMid meet">
<metadata>
Created by potrace 1.14, written by Peter Selinger 2001-2017
</metadata>
<g transform="translate(0.000000,122.000000) scale(0.100000,-0.100000)"
fill="#000000" stroke="none">
<path d="M0 610 l0 -610 610 0 610 0 0 610 0 610 -610 0 -610 0 0 -610z m718
357 c117 -77 103 -256 -23 -317 -128 -62 -276 40 -263 180 14 141 169 215 286
137z m-497 -603 c17 -21 0 -48 -34 -52 -19 -2 -27 -10 -30 -30 -2 -15 -5 1 -6
36 l-1 62 29 0 c16 0 34 -7 42 -16z m441 -1 c22 -20 23 -61 1 -85 -34 -38
-103 -11 -103 40 0 54 62 81 102 45z m-344 -61 l3 -43 -33 3 c-25 2 -33 8 -33
23 0 14 8 21 28 23 33 4 31 23 -4 34 -22 6 -21 7 6 5 28 -2 30 -5 33 -45z m62
39 c-19 -5 -25 -13 -25 -36 0 -23 6 -31 25 -36 21 -6 22 -7 4 -8 -26 -1 -44
17 -44 44 0 27 18 45 45 44 17 -1 16 -2 -5 -8z m110 -5 c28 -35 -11 -93 -47
-70 -36 22 -23 84 17 84 10 0 23 -7 30 -14z m243 7 c-18 -3 -23 -13 -26 -46
l-4 -42 -1 48 c-2 45 -1 47 26 46 22 -1 23 -2 5 -6z m107 -7 c28 -35 -11 -93
-47 -70 -36 22 -23 84 17 84 10 0 23 -7 30 -14z m90 7 c0 -3 -11 -21 -25 -39
l-25 -33 27 -4 c26 -4 26 -4 -4 -6 -40 -1 -40 3 -8 45 l25 33 -27 4 c-26 4
-26 4 5 6 17 0 32 -2 32 -6z m60 -2 c-19 -5 -25 -13 -25 -36 0 -23 6 -31 25
-36 21 -6 22 -7 4 -8 -26 -1 -44 17 -44 44 0 27 18 45 45 44 17 -1 16 -2 -5
-8z m110 -5 c28 -35 -11 -93 -47 -70 -36 22 -23 84 17 84 10 0 23 -7 30 -14z"/>
<path d="M540 957 c-50 -26 -90 -90 -90 -142 0 -18 10 -51 23 -75 26 -50 90
-90 142 -90 52 0 116 40 142 90 13 24 23 57 23 75 0 52 -40 116 -90 142 -55
29 -95 29 -150 0z m44 -109 c15 -24 -3 -52 -37 -56 -17 -2 -27 -10 -30 -25 -2
-12 -5 6 -6 41 l-1 63 31 -3 c18 -2 37 -11 43 -20z m128 5 c38 -34 11 -103
-40 -103 -54 0 -81 62 -45 102 20 22 61 23 85 1z"/>
<path d="M520 830 c0 -30 11 -37 44 -24 21 8 21 40 0 48 -33 13 -44 6 -44 -24z"/>
<path d="M636 844 c-9 -8 -16 -24 -16 -34 0 -10 7 -26 16 -34 8 -9 24 -16 34
-16 10 0 26 7 34 16 9 8 16 24 16 34 0 10 -7 26 -16 34 -8 9 -24 16 -34 16
-10 0 -26 -7 -34 -16z"/>
<path d="M160 345 c0 -23 4 -26 28 -23 38 4 38 42 0 46 -24 3 -28 0 -28 -23z"/>
<path d="M586 354 c-31 -30 -9 -84 34 -84 24 0 50 26 50 50 0 24 -26 50 -50
50 -10 0 -26 -7 -34 -16z"/>
<path d="M267 294 c-10 -11 3 -24 24 -24 10 0 19 7 19 15 0 15 -31 21 -43 9z"/>
<path d="M435 321 c-8 -26 4 -51 25 -51 10 0 21 7 24 16 10 25 -3 54 -24 54
-10 0 -21 -8 -25 -19z"/>
<path d="M785 321 c-8 -26 4 -51 25 -51 10 0 21 7 24 16 10 25 -3 54 -24 54
-10 0 -21 -8 -25 -19z"/>
<path d="M1045 321 c-8 -26 4 -51 25 -51 10 0 21 7 24 16 10 25 -3 54 -24 54
-10 0 -21 -8 -25 -19z"/>
</g>
</svg>
